<?xml version="1.0" encoding="utf-8"?>
<!-- Generator: Adobe Illustrator 23.0.3, SVG Export Plug-In . SVG Version: 6.00 Build 0)  -->
<svg width="118 px" height="118 px" version="1.1" id="Capa_1" xmlns="http://www.w3.org/2000/svg" xmlns:xlink="http://www.w3.org/1999/xlink" x="0px" y="0px"
	 viewBox="0 0 118 118" style="enable-background:new 0 0 118 118;" xml:space="preserve">
<style type="text/css">
	.st0{fill:#221F20;}
	.st1{fill:#CB037B;}
	.st2{fill:#FFFFFF;}
</style>
<g id="Layer_1">
	<g>
		<g id="XMLID_18_">
			<path id="XMLID_12_" class="st0" d="M102.4,81.7l-2.6,2.6c-0.7,0.7-1.7,0.8-2.5,0.4c-0.2-0.1-0.4-0.2-0.6-0.4l-1.6-1.6l1.1-1.1
				c0.9-0.9,0.9-2.3,0-3.1l-1-1l1.5-1.5c0.3-0.3,0.7-0.5,1.1-0.6c0.7-0.2,1.5,0,2.1,0.6l2.6,2.6C103.3,79.4,103.3,80.8,102.4,81.7z"
				/>
			<path id="XMLID_626_" class="st0" d="M95.3,81.5l-2.6,2.6c-0.7,0.7-1.7,0.8-2.5,0.4c-0.2-0.1-0.5-0.3-0.7-0.4l-0.4-0.4
				c0.3-0.5,0.4-1.1,0.4-1.7v-4.2c0-0.6-0.2-1.2-0.4-1.6l0.3-0.3c0.3-0.3,0.7-0.5,1.1-0.6c0.7-0.2,1.5,0,2.1,0.6l2.6,2.6
				C96.2,79.3,96.2,80.7,95.3,81.5z"/>
			<path id="XMLID_615_" class="st1" d="M93.9,81.4L91.3,84c-0.3,0.3-0.7,0.5-1.1,0.6c-0.5,0.1-1.1,0.1-1.5-0.2
				c0.2-0.2,0.4-0.4,0.5-0.6c0.3-0.5,0.4-1.1,0.4-1.7v-4.2c0-0.6-0.2-1.2-0.4-1.6c-0.2-0.3-0.4-0.6-0.7-0.8c0.6-0.4,1.4-0.4,2.1-0.1
				c0.2,0.1,0.4,0.3,0.7,0.4l2.6,2.6C94.8,79.1,94.8,80.5,93.9,81.4z"/>
			<path id="XMLID_602_" class="st0" d="M30.6,77.8c0-1.6,1.1-3,2.6-3h54c0.3,0,0.5,0,0.7,0.1c0.7-1.4,1.1-3,1.1-4.9V56.2h-5.5v14.3
				c0,1-0.2,1.8-0.7,2.3s-1.1,0.8-1.9,0.8c-0.8,0-1.4-0.3-1.9-0.8s-0.7-1.3-0.7-2.3V56.2h-5.4v14.3c0,1-0.2,1.8-0.6,2.3
				s-1.1,0.8-1.9,0.8s-1.4-0.3-1.9-0.8s-0.7-1.3-0.7-2.3V56.2H68v0l-3.1,0h-2.3v0h-0.3c0.2,2.7,0.1,8.9-0.5,10.7l-9.7-13.3
				c-0.8-1.1-1.4-2.1-1.4-3.4c0-1.4,0.9-3,2.8-3c2,0,2.7,1.6,2.7,3.1v0.8h5.9v-0.7c0-5.4-3.4-9.2-8.6-9.2s-8.9,4-8.9,9.2
				c0,1.9,0.7,3.7,1.5,5c-1,0.8-1.8,1.6-2.5,2.5v-1.5h-5.1c-2,0-3.5,0.1-4.4,0.3c-0.9,0.2-1.7,0.6-2.3,1.2c-0.7,0.6-1.2,1.2-1.5,2
				s-0.5,1.7-0.5,2.7c0,1,0.3,2,0.9,3c0.6,1,1.4,1.7,2.4,2.3l4.3,2.6c0.5,0.3,0.9,0.6,1.2,0.9s0.4,0.6,0.4,0.9
				c0,0.4-0.1,0.6-0.4,0.8c-0.2,0.2-0.6,0.3-1.1,0.3H14.9V79h15.6V77.8z M49.7,60.4l8.4,11.4c-1.2,0.7-2.6,1.2-4.2,1.2
				c-3.9,0-7-3.2-7-7C46.8,63.6,48.2,61.6,49.7,60.4z M37.1,64.3c-0.5-0.3-0.9-0.6-1.1-0.9c-0.2-0.3-0.4-0.6-0.4-0.9
				c0-0.3,0.2-0.5,0.5-0.7c0.3-0.1,0.9-0.2,1.7-0.2h3.8C41,63,40.8,64.5,40.8,66c0,0.2,0,0.3,0,0.5L37.1,64.3z"/>
			<path id="XMLID_601_" class="st1" d="M89,78.2v3.6c0,0.5-0.2,1-0.4,1.4c-0.2,0.3-0.4,0.5-0.6,0.7c-0.4,0.3-0.9,0.5-1.5,0.5H33.8
				c-1.4,0-2.5-1.1-2.5-2.5v-3.6c0-1.4,1.1-2.5,2.5-2.5h52.7c0.5,0,0.9,0.1,1.3,0.4c0.3,0.2,0.6,0.5,0.8,0.8
				C88.9,77.2,89,77.7,89,78.2z"/>
			<g id="XMLID_555_">
				<path id="XMLID_599_" class="st2" d="M38.6,81c0,0.5-0.1,0.9-0.4,1.1c-0.2,0.2-0.6,0.3-1.1,0.3h-2.3c-1,0-1.5-0.4-1.5-1.3H34
					c0,0.4,0.3,0.6,0.9,0.6h2c0.3,0,0.5,0,0.6-0.1c0.2-0.1,0.3-0.3,0.3-0.6c0-0.3-0.2-0.5-0.5-0.6c-0.2-0.1-0.5-0.1-0.8-0.1
					c-0.2,0-0.4,0-0.7,0c-0.3,0-0.5,0-0.7,0c-0.6,0-1-0.1-1.3-0.2c-0.4-0.2-0.6-0.6-0.6-1.1c0-0.5,0.1-0.8,0.4-1
					c0.2-0.2,0.6-0.3,1.1-0.3H37c1.1,0,1.6,0.4,1.6,1.3h-0.8c0-0.4-0.3-0.6-0.9-0.6h-2.1c-0.5,0-0.7,0.2-0.7,0.6
					c0,0.4,0.4,0.6,1.3,0.6c0.1,0,0.3,0,0.6,0c0.3,0,0.5,0,0.6,0c0.6,0,1.1,0.1,1.4,0.2C38.4,80,38.6,80.4,38.6,81z"/>
				<path id="XMLID_597_" class="st2" d="M43.7,82.3h-0.8v-1.9h-0.2c-0.8,0-1.3-0.1-1.6-0.3c-0.3-0.3-0.5-0.8-0.5-1.5v-0.8h0.8v0.8
					c0,0.6,0.1,0.9,0.3,1.1c0.2,0.1,0.5,0.2,1.1,0.2h1c0.6,0,0.9-0.1,1.1-0.2c0.2-0.2,0.3-0.5,0.3-1.1v-0.8h0.8v0.8
					c0,0.8-0.2,1.3-0.5,1.6c-0.3,0.2-0.8,0.3-1.6,0.3h-0.2L43.7,82.3L43.7,82.3z"/>
				<path id="XMLID_595_" class="st2" d="M53.3,81c0,0.5-0.1,0.9-0.4,1.1c-0.2,0.2-0.6,0.3-1.1,0.3h-2.3c-1,0-1.5-0.4-1.5-1.3h0.8
					c0,0.4,0.3,0.6,0.9,0.6h2c0.3,0,0.5,0,0.6-0.1c0.2-0.1,0.3-0.3,0.3-0.6c0-0.3-0.2-0.5-0.5-0.6c-0.2-0.1-0.5-0.1-0.8-0.1
					c-0.2,0-0.4,0-0.7,0c-0.3,0-0.5,0-0.7,0c-0.6,0-1-0.1-1.3-0.2c-0.4-0.2-0.6-0.6-0.6-1.1c0-0.5,0.1-0.8,0.4-1
					c0.2-0.2,0.6-0.3,1.1-0.3h2.2c1.1,0,1.6,0.4,1.6,1.3h-0.8c0-0.4-0.3-0.6-0.9-0.6h-2.1c-0.5,0-0.7,0.2-0.7,0.6
					c0,0.4,0.4,0.6,1.3,0.6c0.1,0,0.3,0,0.6,0c0.3,0,0.5,0,0.6,0c0.6,0,1.1,0.1,1.4,0.2C53.1,80,53.3,80.4,53.3,81z"/>
				<path id="XMLID_588_" class="st2" d="M62.3,81.7l-0.4,0.7L61.1,82c-0.3,0.1-0.4,0.2-0.5,0.2c-0.2,0.1-0.5,0.1-0.9,0.1h-2.4
					c-0.7,0-1.1-0.1-1.4-0.3c-0.3-0.2-0.5-0.7-0.5-1.3c0-0.7,0.3-1.2,1-1.3c-0.2-0.1-0.2-0.3-0.2-0.6c0-0.5,0.2-0.8,0.6-1
					c0.3-0.1,0.7-0.2,1.2-0.2h1c0.5,0,1,0.1,1.2,0.2c0.3,0.2,0.5,0.6,0.5,1.1h-0.8c0-0.4-0.3-0.6-1-0.6h-1c-0.6,0-0.9,0.2-0.9,0.5
					c0,0.2,0.1,0.3,0.4,0.5l3.4,1.6c0.1-0.1,0.1-0.3,0.1-0.5h0.8c0,0.3-0.1,0.6-0.2,0.8L62.3,81.7z M60.2,81.5l-3.3-1.6
					c-0.5,0-0.7,0.3-0.7,0.9c0,0.3,0.1,0.6,0.4,0.7c0.2,0.1,0.5,0.1,0.8,0.1h1.7C59.7,81.6,60,81.6,60.2,81.5z"/>
				<path id="XMLID_586_" class="st2" d="M72.8,77.7L71,82.3h-1.2l-1.3-3.7l-1.3,3.7H66l-1.8-4.7H65l1.5,4h0.1l1.4-4h0.8l1.5,3.9
					h0.1l1.5-3.9H72.8z"/>
				<path id="XMLID_560_" class="st2" d="M80.3,81c0,0.6-0.2,1-0.6,1.2c-0.3,0.1-0.9,0.2-1.7,0.2h-1c-0.7,0-1.1-0.1-1.4-0.2
					c-0.3-0.1-0.6-0.3-0.7-0.7c-0.1-0.3-0.2-0.8-0.2-1.4c0-0.7,0.1-1.2,0.2-1.5c0.1-0.4,0.3-0.6,0.6-0.7c0.3-0.1,0.8-0.2,1.5-0.2h1
					c0.8,0,1.3,0.1,1.7,0.3c0.3,0.2,0.5,0.5,0.6,0.9c0,0.1,0,0.3,0,0.8c0,0,0,0,0,0v0.6h-4.9c0,0.6,0.1,1,0.3,1.2
					c0.2,0.1,0.6,0.2,1.2,0.2h1c0.6,0,1,0,1.1-0.1c0.3-0.1,0.4-0.3,0.4-0.6L80.3,81L80.3,81z M79.5,79.6c0-0.4,0-0.7,0-0.7
					c0-0.2-0.2-0.4-0.5-0.4c-0.2,0-0.5-0.1-1.1-0.1H77c-0.6,0-1,0.1-1.2,0.2c-0.2,0.2-0.3,0.5-0.3,1H79.5z"/>
				<path id="XMLID_556_" class="st2" d="M85.9,82.3h-3.7v-4.7h3.4c0.5,0,0.8,0.1,1.1,0.2c0.3,0.2,0.4,0.5,0.4,0.9
					c0,0.2,0,0.4-0.1,0.6c-0.1,0.2-0.2,0.3-0.3,0.4c0.4,0.1,0.6,0.5,0.6,1.1c0,0.5-0.1,0.8-0.3,1.1C86.8,82.2,86.4,82.3,85.9,82.3z
					 M85.6,78.4H83v1.2h2.7c0.5,0,0.7-0.2,0.7-0.6C86.4,78.6,86.1,78.4,85.6,78.4z M85.8,80.3H83v1.4h2.8c0.5,0,0.8-0.2,0.8-0.7
					C86.6,80.5,86.3,80.3,85.8,80.3z"/>
			</g>
			<path id="XMLID_13_" class="st1" d="M101,81.5l-2.6,2.6c-0.3,0.3-0.7,0.5-1.1,0.6c-0.7,0.2-1.5,0-2.1-0.6l-0.8-0.8l0.7-0.7
				l1.1-1.1c0.9-0.9,0.9-2.3,0-3.1l-1-1l-0.8-0.8l0.8-0.8c0.7-0.7,1.7-0.8,2.5-0.4c0.2,0.1,0.4,0.2,0.6,0.4l2.6,2.6
				C101.8,79.3,101.8,80.7,101,81.5z"/>
		</g>
	</g>
</g>
</svg>
