<svg width="118 px" height="118 px" id="Capa_1" data-name="Capa 1" xmlns="http://www.w3.org/2000/svg" viewBox="0 0 118 118"><defs><style>.cls-1{fill:#221f20;}.cls-2{fill:#cb037b;}.cls-3{fill:#fff;}</style></defs><title>logo</title><g id="Layer_1" data-name="Layer 1"><path class="cls-1" d="M102.42,81.69l-2.58,2.57a2.22,2.22,0,0,1-3.13,0l-1.58-1.58,1.08-1.07a2.21,2.21,0,0,0,0-3.13l-1-1,1.5-1.5a2.21,2.21,0,0,1,3.13,0l2.57,2.58A2.22,2.22,0,0,1,102.42,81.69Z"/><path class="cls-1" d="M95.35,81.53,92.77,84.1a2.21,2.21,0,0,1-3.13,0l-.36-.36a3.24,3.24,0,0,0,.45-1.68V77.83a3.28,3.28,0,0,0-.43-1.64l.35-.35a2.15,2.15,0,0,1,1-.58,2.2,2.2,0,0,1,2.08.59l2.57,2.58A2.18,2.18,0,0,1,95.35,81.53Z"/><path class="cls-2" d="M93.92,81.39,91.34,84a2.15,2.15,0,0,1-1,.58,2.22,2.22,0,0,1-1.52-.18,2.61,2.61,0,0,0,.51-.63,3.24,3.24,0,0,0,.45-1.68V77.82a3.28,3.28,0,0,0-.43-1.64,2.65,2.65,0,0,0-.68-.8,2.22,2.22,0,0,1,2.09-.13,2.37,2.37,0,0,1,.65.45l2.57,2.58A2.21,2.21,0,0,1,93.92,81.39Z"/><path class="cls-1" d="M30.57,77.81a2.79,2.79,0,0,1,2.57-3h54a2,2,0,0,1,.74.13,10.61,10.61,0,0,0,1-4.9V56.18H83.49V70.43a3.67,3.67,0,0,1-.65,2.33,2.55,2.55,0,0,1-3.73,0,3.65,3.65,0,0,1-.65-2.33V56.18H73.1V70.43a3.67,3.67,0,0,1-.64,2.33,2.54,2.54,0,0,1-3.72,0,3.65,3.65,0,0,1-.65-2.33V56.18H62.3c.2,2.68.1,8.85-.49,10.74L52.07,53.64a5.53,5.53,0,0,1-1.42-3.41,2.89,2.89,0,0,1,2.84-3c2,0,2.74,1.63,2.74,3.1v.79h5.92v-.74c0-5.36-3.37-9.24-8.56-9.24s-8.9,4-8.9,9.24a10.23,10.23,0,0,0,1.47,5,16.05,16.05,0,0,0-2.54,2.54V56.46H38.5a19.85,19.85,0,0,0-4.4.34A5.39,5.39,0,0,0,31.81,58a5.53,5.53,0,0,0-1.5,2,6.78,6.78,0,0,0-.51,2.68,5.59,5.59,0,0,0,.88,3A7.07,7.07,0,0,0,33,68l4.34,2.6a4.46,4.46,0,0,1,1.17,1,1.49,1.49,0,0,1,.38.93,1,1,0,0,1-.37.82,1.71,1.71,0,0,1-1.06.28H14.93V79H30.57Zm19.1-17.44,8.41,11.4A8.16,8.16,0,0,1,53.87,73a7.07,7.07,0,0,1-7-7A7.53,7.53,0,0,1,49.67,60.37ZM37.06,64.29a4.28,4.28,0,0,1-1.13-.9,1.46,1.46,0,0,1-.37-.9.69.69,0,0,1,.47-.67,5,5,0,0,1,1.71-.2h3.8A12.84,12.84,0,0,0,40.77,66c0,.17,0,.34,0,.51Z"/><path class="cls-2" d="M89.05,78.16v3.57a2.52,2.52,0,0,1-.4,1.36,2.67,2.67,0,0,1-.63.67,2.49,2.49,0,0,1-1.47.48H33.85a2.51,2.51,0,0,1-2.51-2.51V78.16a2.51,2.51,0,0,1,2.51-2.51H86.54a2.52,2.52,0,0,1,1.33.38,2.49,2.49,0,0,1,1.18,2.13Z"/><path class="cls-3" d="M38.62,81a1.3,1.3,0,0,1-.4,1.09,1.82,1.82,0,0,1-1.14.28H34.75q-1.53,0-1.53-1.32H34c0,.41.29.61.86.61h2a1.37,1.37,0,0,0,.62-.11A.57.57,0,0,0,37.8,81a.6.6,0,0,0-.47-.6,2.61,2.61,0,0,0-.85-.1c-.15,0-.37,0-.67,0l-.67,0a3.07,3.07,0,0,1-1.33-.22,1.14,1.14,0,0,1-.62-1.1,1.18,1.18,0,0,1,.43-1,1.89,1.89,0,0,1,1.12-.27H37c1.1,0,1.64.44,1.64,1.31h-.84c0-.41-.29-.61-.88-.61H34.79c-.48,0-.73.2-.73.61s.44.63,1.32.63l.62,0c.27,0,.48,0,.61,0a2.94,2.94,0,0,1,1.37.25A1.14,1.14,0,0,1,38.62,81Z"/><path class="cls-3" d="M43.68,82.34h-.81V80.41h-.2a2.71,2.71,0,0,1-1.61-.35,1.92,1.92,0,0,1-.5-1.54v-.84h.79v.78a1.31,1.31,0,0,0,.32,1.06,2.19,2.19,0,0,0,1.12.19h1a2.05,2.05,0,0,0,1.1-.19c.21-.15.31-.5.31-1v-.78h.79v.84a2,2,0,0,1-.49,1.55,2.67,2.67,0,0,1-1.61.35h-.17v1.91Z"/><path class="cls-3" d="M53.33,81a1.3,1.3,0,0,1-.4,1.09,1.8,1.8,0,0,1-1.14.28H49.46q-1.53,0-1.53-1.32h.81c0,.41.29.61.86.61h2a1.45,1.45,0,0,0,.63-.11.57.57,0,0,0,.27-.55.6.6,0,0,0-.47-.6,2.59,2.59,0,0,0-.84-.1c-.15,0-.37,0-.67,0l-.67,0a3.07,3.07,0,0,1-1.33-.22,1.14,1.14,0,0,1-.62-1.1,1.2,1.2,0,0,1,.42-1,1.91,1.91,0,0,1,1.12-.27h2.22c1.09,0,1.64.44,1.64,1.31h-.84c0-.41-.29-.61-.88-.61h-2.1c-.48,0-.73.2-.73.61s.44.63,1.32.63l.61,0c.27,0,.48,0,.61,0a2.94,2.94,0,0,1,1.37.25A1.12,1.12,0,0,1,53.33,81Z"/><path class="cls-3" d="M62.31,81.66l-.36.71L61.14,82a3.45,3.45,0,0,1-.53.25,3.22,3.22,0,0,1-.91.11H57.32A2.47,2.47,0,0,1,55.9,82a1.48,1.48,0,0,1-.53-1.3,1.18,1.18,0,0,1,1.05-1.3.64.64,0,0,1-.25-.58,1,1,0,0,1,.58-1,2.91,2.91,0,0,1,1.2-.19h1a2.36,2.36,0,0,1,1.23.25,1.19,1.19,0,0,1,.51,1.1h-.8c0-.43-.34-.64-1-.64h-1c-.6,0-.9.17-.9.5,0,.16.14.32.41.48L60.75,81a1.26,1.26,0,0,0,.11-.49h.81a1.84,1.84,0,0,1-.17.82Zm-2.09-.16-3.31-1.57c-.49,0-.74.33-.74.89a.69.69,0,0,0,.38.68,2.08,2.08,0,0,0,.82.12H59.1A2.78,2.78,0,0,0,60.22,81.5Z"/><path class="cls-3" d="M72.85,77.68,71,82.34H69.84L68.5,78.69l-1.33,3.65H66l-1.84-4.66H65l1.54,4h.09l1.45-4h.85l1.46,3.94h.1L72,77.68Z"/><path class="cls-3" d="M80.26,81a1.14,1.14,0,0,1-.58,1.16,4.58,4.58,0,0,1-1.72.21h-1a4.11,4.11,0,0,1-1.42-.17,1.1,1.1,0,0,1-.67-.66,4.41,4.41,0,0,1-.17-1.42,5.26,5.26,0,0,1,.15-1.5,1.1,1.1,0,0,1,.64-.73,4.12,4.12,0,0,1,1.48-.19h1a3.6,3.6,0,0,1,1.68.3,1.1,1.1,0,0,1,.58.87c0,.08,0,.33,0,.76v.67H75.4c0,.62.11,1,.33,1.18a2.46,2.46,0,0,0,1.23.19h1a5.16,5.16,0,0,0,1.14-.08.55.55,0,0,0,.42-.6h.76Zm-.76-1.37c0-.43,0-.67,0-.71a.54.54,0,0,0-.48-.44,5.71,5.71,0,0,0-1.06-.07H77a2.68,2.68,0,0,0-1.23.18c-.23.15-.35.5-.35,1Z"/><path class="cls-3" d="M85.94,82.34H82.21V77.68h3.43a2,2,0,0,1,1.06.22,1,1,0,0,1,.44.94,2.75,2.75,0,0,1,0,.58.66.66,0,0,1-.35.44c.42.12.64.49.64,1.11A1.38,1.38,0,0,1,87,82,1.56,1.56,0,0,1,85.94,82.34Zm-.29-4H83v1.17h2.65c.47,0,.7-.19.7-.57S86.12,78.38,85.65,78.38Zm.16,1.87H83v1.38h2.84c.51,0,.76-.24.76-.72S86.34,80.25,85.81,80.25Z"/><path class="cls-2" d="M101,81.54,98.4,84.11a2.21,2.21,0,0,1-3.13,0l-.78-.79.65-.65,1.08-1.07a2.21,2.21,0,0,0,0-3.13l-1-1-.79-.79.85-.85a2.21,2.21,0,0,1,2.49-.44,2.24,2.24,0,0,1,.63.44L101,78.41A2.21,2.21,0,0,1,101,81.54Z"/></g></svg>
