<?xml version="1.0" encoding="utf-8"?>
<!-- Generator: Adobe Illustrator 24.0.3, SVG Export Plug-In . SVG Version: 6.00 Build 0)  -->
<svg width="185" height="118" version="1.1" id="Capa_1" xmlns="http://www.w3.org/2000/svg" xmlns:xlink="http://www.w3.org/1999/xlink" x="0px" y="0px"
	 viewBox="0 0 154 78" style="enable-background:new 0 0 154 78;" xml:space="preserve">
<style type="text/css">
	.st0{fill:#1E1E1C;}
	.st1{fill:#CB037B;}
	.st2{fill:#FFFFFF;}
</style>
<g id="Capa_1_1_">
</g>
<g id="Layer_1">
	<g>
		<g id="XMLID_34_">
			<path id="XMLID_84_" class="st0" d="M120,54.3l-2.6,2.6c-0.7,0.7-1.7,0.8-2.5,0.4c-0.2-0.1-0.4-0.2-0.6-0.4l-1.6-1.6l1.1-1.1
				c0.9-0.9,0.9-2.3,0-3.1l-1-1l1.5-1.5c0.3-0.3,0.7-0.5,1.1-0.6c0.7-0.2,1.5,0,2.1,0.6l2.6,2.6C120.9,52.1,120.9,53.5,120,54.3z"/>
			<g id="XMLID_31_">
				<path id="XMLID_83_" class="st0" d="M113,54.2l-2.6,2.6c-0.7,0.7-1.7,0.8-2.5,0.4c-0.2-0.1-0.5-0.3-0.7-0.4l-0.4-0.4
					c0.3-0.5,0.4-1.1,0.4-1.7v-4.2c0-0.6-0.2-1.2-0.4-1.6l0.3-0.3c0.3-0.3,0.7-0.5,1.1-0.6c0.7-0.2,1.5,0,2.1,0.6l2.6,2.6
					C113.8,51.9,113.8,53.3,113,54.2z"/>
				<path id="XMLID_82_" class="st1" d="M111.5,54l-2.6,2.6c-0.3,0.3-0.7,0.5-1.1,0.6c-0.5,0.1-1.1,0.1-1.5-0.2
					c0.2-0.2,0.4-0.4,0.5-0.6c0.3-0.5,0.4-1.1,0.4-1.7v-4.2c0-0.6-0.2-1.2-0.4-1.6c-0.2-0.3-0.4-0.6-0.7-0.8
					c0.6-0.4,1.4-0.4,2.1-0.1c0.2,0.1,0.4,0.3,0.7,0.4l2.6,2.6C112.4,51.8,112.4,53.2,111.5,54z"/>
				<path id="XMLID_78_" class="st2" d="M48.2,50.5c0-1.6,1.1-3,2.6-3h54c0.3,0,0.5,0,0.7,0.1c0.7-1.4,1.1-3,1.1-4.9V28.8h-5.5v14.2
					c0,1-0.2,1.8-0.7,2.3s-1.1,0.8-1.9,0.8c-0.8,0-1.4-0.3-1.9-0.8s-0.7-1.3-0.7-2.3V28.8h-5.4v14.2c0,1-0.2,1.8-0.6,2.3
					s-1.1,0.8-1.9,0.8s-1.4-0.3-1.9-0.8s-0.7-1.3-0.7-2.3V28.8h-0.1v0l-3.1,0h-2.3v0h-0.3c0.2,2.7,0.1,8.8-0.5,10.7l-9.7-13.3
					c-0.8-1.1-1.4-2.1-1.4-3.4c0-1.4,0.9-3,2.8-3c2,0,2.7,1.6,2.7,3.1v0.8h5.9V23c0-5.4-3.4-9.2-8.6-9.2c-5.2,0-8.9,4-8.9,9.2
					c0,1.9,0.7,3.7,1.5,5c-1,0.8-1.8,1.6-2.5,2.5v-1.5h-5.1c-2,0-3.5,0.1-4.4,0.3c-0.9,0.2-1.7,0.6-2.3,1.2c-0.7,0.6-1.2,1.2-1.5,2
					s-0.5,1.7-0.5,2.7c0,1,0.3,2,0.9,3s1.4,1.7,2.4,2.3l4.3,2.6c0.5,0.3,0.9,0.6,1.2,1c0.2,0.3,0.4,0.6,0.4,0.9
					c0,0.4-0.1,0.6-0.4,0.8c-0.2,0.2-0.6,0.3-1.1,0.3H32.5v5.4h15.6V50.5z M67.3,33l8.4,11.4c-1.2,0.7-2.6,1.2-4.2,1.2
					c-3.9,0-7-3.2-7-7C64.4,36.2,65.8,34.3,67.3,33z M54.7,36.9c-0.5-0.3-0.9-0.6-1.1-0.9c-0.2-0.3-0.4-0.6-0.4-0.9
					c0-0.3,0.2-0.5,0.5-0.7c0.3-0.1,0.9-0.2,1.7-0.2h3.8c-0.5,1.4-0.8,2.8-0.8,4.4c0,0.2,0,0.3,0,0.5L54.7,36.9z"/>
				<path id="XMLID_77_" class="st1" d="M106.7,50.8v3.6c0,0.5-0.2,1-0.4,1.4c-0.2,0.3-0.4,0.5-0.6,0.7c-0.4,0.3-0.9,0.5-1.5,0.5
					H51.5c-1.4,0-2.5-1.1-2.5-2.5v-3.6c0-1.4,1.1-2.5,2.5-2.5h52.7c0.5,0,0.9,0.1,1.3,0.4c0.3,0.2,0.6,0.5,0.8,0.8
					C106.5,49.9,106.7,50.3,106.7,50.8z"/>
				<g id="XMLID_58_">
					<path id="XMLID_75_" class="st2" d="M56.2,53.6c0,0.5-0.1,0.9-0.4,1.1c-0.2,0.2-0.6,0.3-1.1,0.3h-2.3c-1,0-1.5-0.4-1.5-1.3h0.8
						c0,0.4,0.3,0.6,0.9,0.6h2c0.3,0,0.5,0,0.6-0.1c0.2-0.1,0.3-0.3,0.3-0.6c0-0.3-0.2-0.5-0.5-0.6c-0.2-0.1-0.5-0.1-0.8-0.1
						c-0.2,0-0.4,0-0.7,0c-0.3,0-0.5,0-0.7,0c-0.6,0-1-0.1-1.3-0.2c-0.4-0.2-0.6-0.6-0.6-1.1c0-0.5,0.1-0.8,0.4-1
						c0.2-0.2,0.6-0.3,1.1-0.3h2.2c1.1,0,1.6,0.4,1.6,1.3h-0.8c0-0.4-0.3-0.6-0.9-0.6h-2.1c-0.5,0-0.7,0.2-0.7,0.6
						c0,0.4,0.4,0.6,1.3,0.6c0.1,0,0.3,0,0.6,0c0.3,0,0.5,0,0.6,0c0.6,0,1.1,0.1,1.4,0.2C56,52.7,56.2,53.1,56.2,53.6z"/>
					<path id="XMLID_73_" class="st2" d="M61.3,55h-0.8v-1.9h-0.2c-0.8,0-1.3-0.1-1.6-0.3c-0.3-0.3-0.5-0.8-0.5-1.5v-0.8H59v0.8
						c0,0.6,0.1,0.9,0.3,1.1c0.2,0.1,0.5,0.2,1.1,0.2h1c0.6,0,0.9-0.1,1.1-0.2c0.2-0.2,0.3-0.5,0.3-1.1v-0.8h0.8v0.8
						c0,0.8-0.2,1.3-0.5,1.6c-0.3,0.2-0.8,0.3-1.6,0.3h-0.2V55z"/>
					<path id="XMLID_71_" class="st2" d="M70.9,53.6c0,0.5-0.1,0.9-0.4,1.1c-0.2,0.2-0.6,0.3-1.1,0.3h-2.3c-1,0-1.5-0.4-1.5-1.3h0.8
						c0,0.4,0.3,0.6,0.9,0.6h2c0.3,0,0.5,0,0.6-0.1c0.2-0.1,0.3-0.3,0.3-0.6c0-0.3-0.2-0.5-0.5-0.6c-0.2-0.1-0.5-0.1-0.8-0.1
						c-0.2,0-0.4,0-0.7,0c-0.3,0-0.5,0-0.7,0c-0.6,0-1-0.1-1.3-0.2c-0.4-0.2-0.6-0.6-0.6-1.1c0-0.5,0.1-0.8,0.4-1
						c0.2-0.2,0.6-0.3,1.1-0.3h2.2c1.1,0,1.6,0.4,1.6,1.3h-0.8c0-0.4-0.3-0.6-0.9-0.6h-2.1c-0.5,0-0.7,0.2-0.7,0.6
						c0,0.4,0.4,0.6,1.3,0.6c0.1,0,0.3,0,0.6,0c0.3,0,0.5,0,0.6,0c0.6,0,1.1,0.1,1.4,0.2C70.7,52.7,70.9,53.1,70.9,53.6z"/>
					<path id="XMLID_68_" class="st2" d="M79.9,54.3L79.6,55l-0.8-0.4c-0.3,0.1-0.4,0.2-0.5,0.2C78,54.9,77.7,55,77.3,55h-2.4
						c-0.7,0-1.1-0.1-1.4-0.3C73.2,54.4,73,54,73,53.4c0-0.7,0.3-1.2,1-1.3c-0.2-0.1-0.2-0.3-0.2-0.6c0-0.5,0.2-0.8,0.6-1
						c0.3-0.1,0.7-0.2,1.2-0.2h1c0.5,0,1,0.1,1.2,0.2c0.3,0.2,0.5,0.6,0.5,1.1h-0.8c0-0.4-0.3-0.6-1-0.6h-1c-0.6,0-0.9,0.2-0.9,0.5
						c0,0.2,0.1,0.3,0.4,0.5l3.4,1.6c0.1-0.1,0.1-0.3,0.1-0.5h0.8c0,0.3-0.1,0.6-0.2,0.8L79.9,54.3z M77.8,54.2l-3.3-1.6
						c-0.5,0-0.7,0.3-0.7,0.9c0,0.3,0.1,0.6,0.4,0.7c0.2,0.1,0.4,0.1,0.8,0.1h1.7C77.3,54.3,77.7,54.2,77.8,54.2z"/>
					<path id="XMLID_66_" class="st2" d="M90.5,50.3L88.6,55h-1.2l-1.3-3.7L84.8,55h-1.2l-1.8-4.7h0.9l1.5,4h0.1l1.4-4h0.8l1.5,3.9
						h0.1l1.5-3.9H90.5z"/>
					<path id="XMLID_63_" class="st2" d="M97.9,53.6c0,0.6-0.2,1-0.6,1.2C97,54.9,96.4,55,95.6,55h-1c-0.7,0-1.1-0.1-1.4-0.2
						c-0.3-0.1-0.6-0.3-0.7-0.7c-0.1-0.3-0.2-0.8-0.2-1.4c0-0.7,0.1-1.2,0.2-1.5c0.1-0.4,0.3-0.6,0.6-0.7c0.3-0.1,0.8-0.2,1.5-0.2h1
						c0.8,0,1.3,0.1,1.7,0.3c0.3,0.2,0.5,0.5,0.6,0.9c0,0.1,0,0.3,0,0.8c0,0,0,0,0,0v0.6H93c0,0.6,0.1,1,0.3,1.2
						c0.2,0.1,0.6,0.2,1.2,0.2h1c0.6,0,1,0,1.1-0.1c0.3-0.1,0.4-0.3,0.4-0.6L97.9,53.6L97.9,53.6z M97.1,52.2c0-0.4,0-0.7,0-0.7
						c0-0.2-0.2-0.4-0.5-0.4c-0.2,0-0.5-0.1-1.1-0.1h-1c-0.6,0-1,0.1-1.2,0.2c-0.2,0.2-0.3,0.5-0.3,1H97.1z"/>
					<path id="XMLID_59_" class="st2" d="M103.6,55h-3.7v-4.7h3.4c0.5,0,0.8,0.1,1.1,0.2c0.3,0.2,0.4,0.5,0.4,0.9
						c0,0.2,0,0.4-0.1,0.6c-0.1,0.2-0.2,0.3-0.3,0.4c0.4,0.1,0.6,0.5,0.6,1.1c0,0.5-0.1,0.8-0.3,1.1C104.4,54.9,104.1,55,103.6,55z
						 M103.3,51h-2.6v1.2h2.7c0.5,0,0.7-0.2,0.7-0.6C104,51.2,103.7,51,103.3,51z M103.4,52.9h-2.8v1.4h2.8c0.5,0,0.8-0.2,0.8-0.7
						C104.2,53.1,103.9,52.9,103.4,52.9z"/>
				</g>
				<path id="XMLID_57_" class="st1" d="M118.6,54.2l-2.6,2.6c-0.3,0.3-0.7,0.5-1.1,0.6c-0.7,0.2-1.5,0-2.1-0.6l-0.8-0.8l0.7-0.7
					l1.1-1.1c0.9-0.9,0.9-2.3,0-3.1l-1-1l-0.8-0.8l0.8-0.8c0.7-0.7,1.7-0.8,2.5-0.4c0.2,0.1,0.4,0.2,0.6,0.4l2.6,2.6
					C119.5,51.9,119.5,53.3,118.6,54.2z"/>
			</g>
		</g>
	</g>
</g>
</svg>
