<?xml version="1.0" encoding="utf-8"?>
<!-- Generator: Adobe Illustrator 23.0.3, SVG Export Plug-In . SVG Version: 6.00 Build 0)  -->
<svg width="185" height="118" version="1.1" id="Capa_1" xmlns="http://www.w3.org/2000/svg" xmlns:xlink="http://www.w3.org/1999/xlink" x="0px" y="0px"
	 viewBox="0 0 185 118" style="enable-background:new 0 0 185 118;" xml:space="preserve">
<style type="text/css">
	.st0{fill:#221F20;}
	.st1{fill:#CB037B;}
	.st2{fill:#FFFFFF;}
</style>
<g id="Layer_1">
	<g>
		<g id="XMLID_18_">
			<path id="XMLID_12_" class="st0" d="M161,88.5l-4.1,4.1c-1.1,1.1-2.6,1.3-3.9,0.7c-0.4-0.2-0.7-0.4-1-0.7l-2.5-2.5l1.7-1.7
				c1.4-1.4,1.4-3.6,0-4.9l-1.6-1.6l2.4-2.4c0.5-0.5,1.1-0.8,1.7-0.9c1.1-0.3,2.4,0,3.3,0.9l4.1,4.1C162.3,84.9,162.3,87.1,161,88.5
				z"/>
			<path id="XMLID_626_" class="st0" d="M149.8,88.2l-4.1,4.1c-1.1,1.1-2.6,1.3-3.9,0.7c-0.4-0.2-0.7-0.4-1-0.7l-0.6-0.6
				c0.5-0.8,0.7-1.7,0.7-2.6v-6.7c0-1-0.3-1.8-0.7-2.6l0.6-0.6c0.5-0.5,1-0.8,1.7-0.9c1.1-0.3,2.4,0,3.3,0.9l4.1,4.1
				C151.2,84.6,151.2,86.9,149.8,88.2z"/>
			<path id="XMLID_615_" class="st1" d="M147.6,88l-4.1,4.1c-0.5,0.5-1,0.8-1.7,0.9c-0.8,0.2-1.7,0.1-2.4-0.3c0.3-0.3,0.6-0.6,0.8-1
				c0.5-0.8,0.7-1.7,0.7-2.6v-6.7c0-1-0.3-1.8-0.7-2.6c-0.3-0.5-0.6-0.9-1.1-1.3c1-0.6,2.2-0.7,3.3-0.2c0.4,0.2,0.7,0.4,1,0.7
				l4.1,4.1C148.9,84.4,148.9,86.6,147.6,88z"/>
			<path id="XMLID_602_" class="st0" d="M47.7,82.4c0-2.6,1.8-4.7,4.1-4.7h85.2c0.4,0,0.8,0.1,1.2,0.2c1.1-2.1,1.7-4.7,1.7-7.7V48.2
				h-8.6v22.5c0,1.6-0.3,2.8-1,3.7s-1.7,1.3-2.9,1.3c-1.3,0-2.3-0.4-2.9-1.3c-0.7-0.9-1-2.1-1-3.7V48.2h-8.5v22.5
				c0,1.6-0.3,2.8-1,3.7c-0.7,0.9-1.7,1.3-2.9,1.3c-1.3,0-2.3-0.4-2.9-1.3c-0.7-0.9-1-2.1-1-3.7V48.2h-0.1v0l-4.9,0h-3.6v0h-0.5
				c0.3,4.2,0.2,14-0.8,16.9l-15.4-21c-1.3-1.7-2.2-3.3-2.2-5.4c0-2.2,1.5-4.8,4.5-4.8c3.1,0,4.3,2.6,4.3,4.9v1.2h9.3V39
				c0-8.5-5.3-14.6-13.5-14.6s-14,6.4-14,14.6c0,3.1,1.1,5.8,2.3,7.9c-1.5,1.2-2.9,2.6-4,4v-2.3h-8.1c-3.2,0-5.5,0.2-6.9,0.5
				c-1.4,0.3-2.6,1-3.6,1.8c-1,0.9-1.8,2-2.4,3.2c-0.5,1.3-0.8,2.7-0.8,4.2c0,1.6,0.5,3.2,1.4,4.7c0.9,1.5,2.2,2.7,3.7,3.7l6.8,4.1
				c0.8,0.5,1.5,1,1.8,1.5c0.4,0.5,0.6,1,0.6,1.5c0,0.6-0.2,1-0.6,1.3c-0.4,0.3-0.9,0.4-1.7,0.4H23v8.5h24.7V82.4z M77.8,54.9
				l13.3,18c-1.9,1.2-4.2,1.9-6.6,1.9c-6.1,0-11.1-5-11.1-11C73.3,59.9,75.5,56.8,77.8,54.9z M57.9,61c-0.8-0.5-1.4-0.9-1.8-1.4
				c-0.4-0.5-0.6-0.9-0.6-1.4c0-0.5,0.3-0.9,0.7-1.1c0.5-0.2,1.4-0.3,2.7-0.3h6c-0.8,2.2-1.2,4.5-1.2,6.9c0,0.3,0,0.5,0,0.8L57.9,61
				z"/>
			<path id="XMLID_601_" class="st1" d="M139.9,82.9v5.6c0,0.8-0.2,1.5-0.6,2.1c-0.3,0.4-0.6,0.8-1,1.1c-0.6,0.5-1.5,0.8-2.3,0.8
				H52.8c-2.2,0-4-1.8-4-4v-5.6c0-2.2,1.8-4,4-4h83.1c0.8,0,1.5,0.2,2.1,0.6c0.5,0.3,0.9,0.7,1.2,1.2
				C139.7,81.4,139.9,82.1,139.9,82.9z"/>
			<g id="XMLID_555_">
				<path id="XMLID_599_" class="st2" d="M60.4,87.3c0,0.8-0.2,1.4-0.6,1.7c-0.4,0.3-1,0.4-1.8,0.4h-3.7c-1.6,0-2.4-0.7-2.4-2.1h1.3
					c0,0.6,0.5,1,1.4,1h3.2c0.4,0,0.8-0.1,1-0.2c0.3-0.2,0.4-0.4,0.4-0.9c0-0.5-0.3-0.8-0.7-0.9c-0.3-0.1-0.7-0.2-1.3-0.2
					c-0.2,0-0.6,0-1.1,0c-0.5,0-0.8,0-1.1,0c-0.9,0-1.6-0.1-2.1-0.3c-0.6-0.3-1-0.9-1-1.7c0-0.8,0.2-1.3,0.7-1.6
					c0.4-0.3,1-0.4,1.8-0.4h3.5c1.7,0,2.6,0.7,2.6,2.1H59c0-0.6-0.5-1-1.4-1h-3.3c-0.8,0-1.2,0.3-1.2,1c0,0.7,0.7,1,2.1,1
					c0.2,0,0.5,0,1,0c0.4,0,0.8,0,1,0c0.9,0,1.7,0.1,2.2,0.4C60,85.9,60.4,86.5,60.4,87.3z"/>
				<path id="XMLID_597_" class="st2" d="M68.3,89.5h-1.3v-3h-0.3c-1.2,0-2.1-0.2-2.5-0.6c-0.5-0.4-0.8-1.2-0.8-2.4v-1.3h1.2v1.2
					c0,0.9,0.2,1.4,0.5,1.7c0.3,0.2,0.9,0.3,1.8,0.3h1.5c0.9,0,1.5-0.1,1.7-0.3c0.3-0.2,0.5-0.8,0.5-1.7v-1.2h1.2v1.3
					c0,1.2-0.3,2-0.8,2.4c-0.4,0.4-1.3,0.6-2.5,0.6h-0.3L68.3,89.5L68.3,89.5z"/>
				<path id="XMLID_595_" class="st2" d="M83.6,87.3c0,0.8-0.2,1.4-0.6,1.7c-0.4,0.3-1,0.4-1.8,0.4h-3.7c-1.6,0-2.4-0.7-2.4-2.1h1.3
					c0,0.6,0.5,1,1.4,1h3.2c0.4,0,0.8-0.1,1-0.2c0.3-0.2,0.4-0.4,0.4-0.9c0-0.5-0.3-0.8-0.7-0.9c-0.3-0.1-0.7-0.2-1.3-0.2
					c-0.2,0-0.6,0-1.1,0c-0.5,0-0.8,0-1.1,0c-0.9,0-1.6-0.1-2.1-0.3c-0.6-0.3-1-0.9-1-1.7c0-0.8,0.2-1.3,0.7-1.6
					c0.4-0.3,1-0.4,1.8-0.4h3.5c1.7,0,2.6,0.7,2.6,2.1h-1.3c0-0.6-0.5-1-1.4-1h-3.3c-0.8,0-1.2,0.3-1.2,1c0,0.7,0.7,1,2.1,1
					c0.2,0,0.5,0,1,0c0.4,0,0.8,0,1,0c0.9,0,1.7,0.1,2.2,0.4C83.2,85.9,83.6,86.5,83.6,87.3z"/>
				<path id="XMLID_588_" class="st2" d="M97.7,88.4l-0.6,1.1l-1.3-0.6c-0.4,0.2-0.7,0.3-0.8,0.4c-0.4,0.1-0.9,0.2-1.4,0.2h-3.8
					c-1,0-1.8-0.2-2.2-0.5c-0.6-0.4-0.8-1.1-0.8-2.1c0-1.2,0.6-1.8,1.7-2.1C88.2,84.7,88,84.4,88,84c0-0.7,0.3-1.2,0.9-1.5
					c0.4-0.2,1.1-0.3,1.9-0.3h1.7c0.9,0,1.5,0.1,1.9,0.4c0.5,0.3,0.8,0.9,0.8,1.7H94c0-0.7-0.5-1-1.6-1h-1.6c-0.9,0-1.4,0.3-1.4,0.8
					c0,0.3,0.2,0.5,0.6,0.8l5.3,2.5c0.1-0.2,0.2-0.5,0.2-0.8h1.3c0,0.5-0.1,0.9-0.3,1.3L97.7,88.4z M94.4,88.2l-5.2-2.5
					c-0.8,0-1.2,0.5-1.2,1.4c0,0.5,0.2,0.9,0.6,1.1c0.3,0.1,0.7,0.2,1.3,0.2h2.7C93.6,88.4,94.2,88.3,94.4,88.2z"/>
				<path id="XMLID_586_" class="st2" d="M114.3,82.2l-2.9,7.3h-1.8l-2.1-5.8l-2.1,5.8h-1.9l-2.9-7.3h1.3l2.4,6.2h0.1l2.3-6.2h1.3
					l2.3,6.2h0.2l2.4-6.2H114.3z"/>
				<path id="XMLID_560_" class="st2" d="M126,87.3c0,0.9-0.3,1.5-0.9,1.8c-0.5,0.2-1.4,0.3-2.7,0.3h-1.6c-1,0-1.8-0.1-2.2-0.3
					c-0.5-0.2-0.9-0.5-1.1-1c-0.2-0.5-0.3-1.2-0.3-2.2c0-1.1,0.1-1.9,0.2-2.4c0.2-0.6,0.5-0.9,1-1.2c0.5-0.2,1.3-0.3,2.3-0.3h1.6
					c1.2,0,2.1,0.2,2.6,0.5c0.5,0.3,0.8,0.8,0.9,1.4c0,0.1,0,0.5,0,1.2c0,0,0,0,0,0v1h-7.7c0,1,0.2,1.6,0.5,1.9
					c0.3,0.2,0.9,0.3,1.9,0.3h1.5c0.9,0,1.5,0,1.8-0.1c0.5-0.1,0.7-0.4,0.7-0.9L126,87.3L126,87.3z M124.8,85.2c0-0.7,0-1.1,0-1.1
					c-0.1-0.4-0.3-0.6-0.8-0.7c-0.3-0.1-0.9-0.1-1.7-0.1h-1.5c-1,0-1.6,0.1-1.9,0.3c-0.4,0.2-0.6,0.8-0.6,1.6H124.8z"/>
				<path id="XMLID_556_" class="st2" d="M135,89.5h-5.9v-7.3h5.4c0.7,0,1.3,0.1,1.7,0.3c0.5,0.3,0.7,0.8,0.7,1.5
					c0,0.4,0,0.7-0.1,0.9c-0.1,0.3-0.3,0.6-0.6,0.7c0.7,0.2,1,0.8,1,1.8c0,0.8-0.2,1.3-0.6,1.7C136.4,89.3,135.8,89.5,135,89.5z
					 M134.5,83.3h-4.2v1.8h4.2c0.7,0,1.1-0.3,1.1-0.9C135.6,83.6,135.3,83.3,134.5,83.3z M134.8,86.2h-4.4v2.2h4.5
					c0.8,0,1.2-0.4,1.2-1.1C136,86.6,135.6,86.2,134.8,86.2z"/>
			</g>
			<path id="XMLID_13_" class="st1" d="M158.7,88.2l-4.1,4.1c-0.5,0.5-1.1,0.8-1.7,0.9c-1.1,0.3-2.4,0-3.3-0.9l-1.2-1.2l1-1l1.7-1.7
				c1.4-1.4,1.4-3.6,0-4.9l-1.6-1.6l-1.2-1.2l1.3-1.3c1.1-1.1,2.6-1.3,3.9-0.7c0.4,0.2,0.7,0.4,1,0.7l4.1,4.1
				C160.1,84.7,160.1,86.9,158.7,88.2z"/>
		</g>
	</g>
</g>
</svg>
