<?xml version="1.0" encoding="utf-8"?>
<!-- Generator: Adobe Illustrator 24.1.3, SVG Export Plug-In . SVG Version: 6.00 Build 0)  -->
<svg version="1.1" id="Capa_1" xmlns="http://www.w3.org/2000/svg" xmlns:xlink="http://www.w3.org/1999/xlink" x="0px" y="0px"
	 viewBox="0 0 2550 2492" style="enable-background:new 0 0 2550 2492;" xml:space="preserve">
<style type="text/css">
	.st0{fill-rule:evenodd;clip-rule:evenodd;fill:url(#Path-41_1_);}
</style>
<desc>Created with Sketch.</desc>
<g id="Main-Files">
	<g id="_x30_4_x5F_index-Saas-Copy" transform="translate(0.000000, -2051.000000)">
		<g id="Our-Services" transform="translate(-47.000000, 1376.000000)">
			<g id="Bg" transform="translate(0.000000, 675.000000)">
				
					<linearGradient id="Path-41_1_" gradientUnits="userSpaceOnUse" x1="926.1663" y1="1858.078" x2="926.2635" y2="1857.3379" gradientTransform="matrix(2897.3555 0 0 -2491.844 -2682072 4630480)">
					<stop  offset="8.523573e-03" style="stop-color:#F1F9FE"/>
					<stop  offset="0.2234" style="stop-color:#F9FCFF"/>
					<stop  offset="0.8097" style="stop-color:#FEF4E1"/>
					<stop  offset="1" style="stop-color:#FFF1C2"/>
				</linearGradient>
				<path id="Path-41" class="st0" d="M685,435c160,112.2,555.3,211,988,8s857,240,857,612c0,319-72.5,423-111.5,464
					c-228.1,239.8-430.5,69-715.5,186c-193,79.2-227,197-224,331s141.5,348.4,445,283.4s346,136.6,530.5,166.6s265.2-56.2,406.5-242
					c94.2-123.9,6.2-871.9-264-2244C1071,9.7,221,15.3,47,17c-36.5,0.3-84,349,0,345S425.5,253,685,435z"/>
			</g>
		</g>
	</g>
</g>
</svg>
