<?xml version="1.0" encoding="utf-8"?>
<!-- Generator: Adobe Illustrator 23.0.2, SVG Export Plug-In . SVG Version: 6.00 Build 0)  -->
<svg version="1.1" xmlns="http://www.w3.org/2000/svg" xmlns:xlink="http://www.w3.org/1999/xlink" height="30px" x="0px" y="0px"
	 viewBox="0 0 21 20" style="enable-background:new 0 0 21 20;" xml:space="preserve">
<style type="text/css">
	.st0{fill:url(#XMLID_2_);}
</style>
<g id="Capa_1">
</g>
<g id="Modo_de_aislamiento">
</g>
<g id="Layer_1">
	<linearGradient id="XMLID_2_" gradientUnits="userSpaceOnUse" x1="10.6271" y1="19.7976" x2="10.0443" y2="0.2726">
		<stop  offset="0" style="stop-color:#020202;stop-opacity:0"/>
		<stop  offset="0.3677" style="stop-color:#2F2F2F;stop-opacity:0.3677"/>
		<stop  offset="0.7889" style="stop-color:#5E5D5D;stop-opacity:0.7889"/>
		<stop  offset="1" style="stop-color:#706F6F"/>
	</linearGradient>
	<path id="XMLID_181_" class="st0" d="M13.5,17.54c-1.07,0.69-2.36,1.07-3.81,1.07c-3.52,0-6.38-2.67-6.38-5.95
		c0-1.86,0.93-3.55,2.62-4.81C5.55,7.24,5.21,6.45,5.21,5.57c0-2.36,1.81-4.19,4.33-4.19c2.53,0,4.17,1.76,4.17,4.19V5.9h-2.88V5.55
		c0-0.67-0.38-1.4-1.33-1.4c-0.93,0-1.38,0.73-1.38,1.38c0,0.6,0.28,1.05,0.69,1.55l4.74,6.02c0.29-0.86,0.34-1.88,0.24-3.09h2.78
		c0.14,2.24-0.17,4.09-1.07,5.54l2.19,2.78h-3.57L13.5,17.54z M7.64,10.12c-0.71,0.57-1.38,1.45-1.38,2.54
		c0,1.71,1.54,3.16,3.43,3.16c0.76,0,1.45-0.21,2.05-0.55L7.64,10.12z"/>
</g>
</svg>
