<?xml version="1.0" encoding="utf-8"?>
<!-- Generator: Adobe Illustrator 23.0.3, SVG Export Plug-In . SVG Version: 6.00 Build 0)  -->
<svg height="350px" width="350px" version="1.1" id="Capa_1" xmlns="http://www.w3.org/2000/svg" xmlns:xlink="http://www.w3.org/1999/xlink" x="0px" y="0px"
	 viewBox="0 0 350 350" style="enable-background:new 0 0 350 350;" xml:space="preserve">
<style type="text/css">
	.st0{clip-path:url(#SVGID_2_);}
	.st1{fill:none;stroke:url(#SVGID_3_);stroke-width:2;stroke-linecap:round;stroke-linejoin:round;}
	.st2{clip-path:url(#SVGID_5_);}
	.st3{fill:none;stroke:url(#SVGID_6_);stroke-width:2;stroke-linecap:round;stroke-linejoin:round;}
	.st4{clip-path:url(#SVGID_8_);}
	.st5{fill:none;stroke:url(#SVGID_9_);stroke-width:2;stroke-linecap:round;stroke-linejoin:round;}
	.st6{clip-path:url(#SVGID_11_);}
	.st7{fill:#FFFFFF;}
	.st8{clip-path:url(#SVGID_13_);}
	.st9{fill:none;stroke:#D2E2F9;stroke-linecap:round;stroke-linejoin:round;stroke-opacity:0.298;}
	.st10{clip-path:url(#SVGID_15_);}
	.st11{clip-path:url(#SVGID_17_);}
	.st12{fill:none;stroke:#D2E2F9;stroke-linecap:round;stroke-linejoin:round;stroke-opacity:0.6;}
	.st13{clip-path:url(#SVGID_19_);}
	.st14{clip-path:url(#SVGID_21_);}
	.st15{fill:none;stroke:url(#SVGID_22_);stroke-width:4;stroke-linecap:round;stroke-linejoin:round;}
</style>
<g>
	<defs>
		<rect id="SVGID_1_" y="185" width="350" height="1"/>
	</defs>
	<clipPath id="SVGID_2_">
		<use xlink:href="#SVGID_1_"  style="overflow:visible;"/>
	</clipPath>
	<g class="st0">

			<linearGradient id="SVGID_3_" gradientUnits="userSpaceOnUse" x1="0" y1="351.5" x2="350" y2="351.5" gradientTransform="matrix(1 0 0 -1 0 537)">
			<stop  offset="0" style="stop-color:#CCDDF8"/>
			<stop  offset="1" style="stop-color:#FFFFFF"/>
		</linearGradient>
		<path class="st1" d="M0,185h350v1H0V185z"/>
	</g>
</g>
<g>
	<defs>
		<rect id="SVGID_4_" y="68" width="150" height="1"/>
	</defs>
	<clipPath id="SVGID_5_">
		<use xlink:href="#SVGID_4_"  style="overflow:visible;"/>
	</clipPath>
	<g class="st2">

			<linearGradient id="SVGID_6_" gradientUnits="userSpaceOnUse" x1="0" y1="351.5" x2="150" y2="351.5" gradientTransform="matrix(1 0 0 -1 0 420)">
			<stop  offset="0" style="stop-color:#CCDDF8"/>
			<stop  offset="1" style="stop-color:#FFFFFF"/>
		</linearGradient>
		<path class="st3" d="M0,68h150v1H0V68z"/>
	</g>
</g>
<g>
	<defs>
		<rect id="SVGID_7_" x="139" width="1" height="350"/>
	</defs>
	<clipPath id="SVGID_8_">
		<use xlink:href="#SVGID_7_"  style="overflow:visible;"/>
	</clipPath>
	<g class="st4">

			<linearGradient id="SVGID_9_" gradientUnits="userSpaceOnUse" x1="0.5" y1="352" x2="0.5" y2="2" gradientTransform="matrix(1 0 0 -1 139 352)">
			<stop  offset="0" style="stop-color:#FFFFFF"/>
			<stop  offset="1" style="stop-color:#D1E1F9"/>
		</linearGradient>
		<path class="st5" d="M139,0h1v350h-1V0z"/>
	</g>
</g>
<g>
	<defs>
		<rect id="SVGID_10_" y="-1118" width="1700" height="9460"/>
	</defs>
	<clipPath id="SVGID_11_">
		<use xlink:href="#SVGID_10_"  style="overflow:visible;"/>
	</clipPath>
	<g class="st6">
		<path class="st7" d="M140,216c16.6,0,30-13.4,30-30s-13.4-30-30-30s-30,13.4-30,30S123.4,216,140,216z"/>
	</g>
</g>
<g>
	<defs>
		<rect id="SVGID_12_" y="-1118" width="1700" height="9460"/>
	</defs>
	<clipPath id="SVGID_13_">
		<use xlink:href="#SVGID_12_"  style="overflow:visible;"/>
	</clipPath>
	<g class="st8">
		<path class="st9" d="M140,216c16.6,0,30-13.4,30-30s-13.4-30-30-30s-30,13.4-30,30S123.4,216,140,216z"/>
	</g>
</g>
<g>
	<defs>
		<rect id="SVGID_14_" y="-1118" width="1700" height="9460"/>
	</defs>
	<clipPath id="SVGID_15_">
		<use xlink:href="#SVGID_14_"  style="overflow:visible;"/>
	</clipPath>
	<g class="st10">
		<path class="st7" d="M139.5,203c9.7,0,17.5-7.8,17.5-17.5c0-9.7-7.8-17.5-17.5-17.5c-9.7,0-17.5,7.8-17.5,17.5
			C122,195.2,129.8,203,139.5,203z"/>
	</g>
</g>
<g>
	<defs>
		<rect id="SVGID_16_" y="-1118" width="1700" height="9460"/>
	</defs>
	<clipPath id="SVGID_17_">
		<use xlink:href="#SVGID_16_"  style="overflow:visible;"/>
	</clipPath>
	<g class="st11">
		<path class="st12" d="M139.5,203c9.7,0,17.5-7.8,17.5-17.5c0-9.7-7.8-17.5-17.5-17.5c-9.7,0-17.5,7.8-17.5,17.5
			C122,195.2,129.8,203,139.5,203z"/>
	</g>
</g>
<g>
	<defs>
		<rect id="SVGID_18_" y="-1118" width="1700" height="9460"/>
	</defs>
	<clipPath id="SVGID_19_">
		<use xlink:href="#SVGID_18_"  style="overflow:visible;"/>
	</clipPath>
	<g class="st13">
		<path class="st7" d="M140.5,192c3.6,0,6.5-2.9,6.5-6.5c0-3.6-2.9-6.5-6.5-6.5c-3.6,0-6.5,2.9-6.5,6.5
			C134,189.1,136.9,192,140.5,192z"/>
	</g>
</g>
<g>
	<defs>
		<rect id="SVGID_20_" y="-1118" width="1700" height="9460"/>
	</defs>
	<clipPath id="SVGID_21_">
		<use xlink:href="#SVGID_20_"  style="overflow:visible;"/>
	</clipPath>
	<g class="st14">
		<linearGradient id="SVGID_22_" gradientUnits="userSpaceOnUse" x1="132" y1="185.5" x2="149" y2="185.5">
			<stop  offset="0" style="stop-color:#F0B6D9"/>
			<stop  offset="0.1225" style="stop-color:#EEAED5"/>
			<stop  offset="0.3174" style="stop-color:#EA96C9"/>
			<stop  offset="0.5603" style="stop-color:#E271B5"/>
			<stop  offset="0.8391" style="stop-color:#D83D9A"/>
			<stop  offset="1" style="stop-color:#D11C89"/>
		</linearGradient>
		<path class="st15" d="M140.5,192c3.6,0,6.5-2.9,6.5-6.5c0-3.6-2.9-6.5-6.5-6.5c-3.6,0-6.5,2.9-6.5,6.5
			C134,189.1,136.9,192,140.5,192z"/>
	</g>
</g>
</svg>
