<?xml version="1.0" encoding="utf-8"?>
<!-- Generator: Adobe Illustrator 23.0.2, SVG Export Plug-In . SVG Version: 6.00 Build 0)  -->
<svg version="1.1" xmlns="http://www.w3.org/2000/svg" xmlns:xlink="http://www.w3.org/1999/xlink" x="0px" y="0px"
	 viewBox="0 0 118 118" style="enable-background:new 0 0 118 118;" xml:space="preserve">
<style type="text/css">
	.st0{fill:#010202;}
	.st1{fill:#1E1E1C;}
	.st2{fill:#CB037B;}
	.st3{fill:#FFFFFF;}
</style>
<g id="Capa_1">
</g>
<g id="Layer_1">
	<g>
		<rect id="XMLID_24_" y="0.48" class="st0" width="118" height="117.04"/>
		<g id="XMLID_34_">
			<path id="XMLID_84_" class="st1" d="M102.03,74.34l-2.58,2.57c-0.68,0.67-1.68,0.82-2.5,0.44c-0.23-0.11-0.44-0.25-0.63-0.44
				l-1.58-1.58l1.08-1.07c0.87-0.86,0.87-2.26,0.01-3.13l-0.99-1l1.5-1.5c0.3-0.3,0.67-0.5,1.06-0.59c0.72-0.17,1.51,0.03,2.07,0.59
				l2.57,2.58C102.9,72.08,102.9,73.48,102.03,74.34z"/>
			<g id="XMLID_31_">
				<path id="XMLID_83_" class="st1" d="M94.97,74.18l-2.58,2.57c-0.67,0.67-1.67,0.82-2.48,0.45c-0.24-0.11-0.46-0.26-0.65-0.45
					l-0.36-0.36c0.29-0.48,0.45-1.06,0.45-1.68v-4.23c0-0.61-0.16-1.17-0.43-1.64l0.35-0.35c0.3-0.3,0.66-0.49,1.05-0.58
					c0.72-0.17,1.52,0.02,2.08,0.59l2.57,2.58C95.83,71.92,95.83,73.32,94.97,74.18z"/>
				<path id="XMLID_82_" class="st2" d="M93.53,74.04l-2.58,2.57c-0.3,0.3-0.66,0.49-1.05,0.58c-0.51,0.12-1.05,0.06-1.52-0.18
					c0.2-0.18,0.37-0.39,0.51-0.63c0.29-0.48,0.45-1.06,0.45-1.68v-4.23c0-0.61-0.16-1.17-0.43-1.64c-0.18-0.32-0.41-0.59-0.68-0.8
					c0.63-0.39,1.42-0.44,2.09-0.13c0.24,0.11,0.45,0.26,0.65,0.45l2.57,2.58C94.4,71.78,94.4,73.18,93.53,74.04z"/>
				<path id="XMLID_78_" class="st3" d="M30.19,70.47c0-1.64,1.15-2.97,2.57-2.97h54.02c0.26,0,0.51,0.04,0.74,0.13
					c0.7-1.36,1.05-3,1.05-4.9V48.84h-5.46v14.25c0,1.01-0.22,1.79-0.65,2.33c-0.43,0.54-1.05,0.81-1.86,0.81
					c-0.82,0-1.44-0.27-1.87-0.81c-0.43-0.54-0.65-1.31-0.65-2.33V48.84h-5.38v14.25c0,1.01-0.21,1.79-0.64,2.33
					c-0.43,0.54-1.05,0.81-1.86,0.81c-0.81,0-1.43-0.27-1.86-0.81c-0.43-0.54-0.65-1.31-0.65-2.33V48.84h-0.07c0,0,0-0.01,0-0.01
					l-3.1,0.01h-2.29v0.01l-0.33,0c0.2,2.68,0.1,8.85-0.49,10.74L51.68,46.3c-0.83-1.1-1.42-2.1-1.42-3.41
					c0-1.42,0.93-3.05,2.84-3.05c1.96,0,2.74,1.63,2.74,3.1v0.79h5.92v-0.74c0-5.36-3.37-9.24-8.56-9.24c-5.19,0-8.9,4.04-8.9,9.24
					c0,1.94,0.69,3.68,1.47,5.04c-0.97,0.78-1.82,1.63-2.54,2.54v-1.45h-5.11c-2.03,0-3.5,0.11-4.4,0.34
					c-0.9,0.22-1.67,0.61-2.29,1.15c-0.66,0.57-1.16,1.25-1.5,2.05c-0.34,0.8-0.51,1.69-0.51,2.68c0,1.01,0.29,2,0.88,2.96
					c0.59,0.96,1.37,1.74,2.36,2.35l4.34,2.6c0.53,0.32,0.92,0.64,1.17,0.95c0.25,0.31,0.38,0.62,0.38,0.93
					c0,0.36-0.13,0.63-0.37,0.82c-0.25,0.19-0.6,0.28-1.06,0.28H14.55v5.39h15.64V70.47z M49.29,53.02l8.41,11.4
					c-1.22,0.73-2.64,1.21-4.21,1.21c-3.87,0-7.04-3.2-7.04-6.99C46.45,56.23,47.82,54.28,49.29,53.02z M36.67,56.94
					c-0.51-0.3-0.88-0.6-1.13-0.9c-0.24-0.3-0.37-0.6-0.37-0.9c0-0.31,0.16-0.54,0.47-0.67c0.31-0.13,0.88-0.2,1.71-0.2h3.8
					c-0.5,1.39-0.77,2.85-0.77,4.37c0,0.17,0,0.34,0.01,0.51L36.67,56.94z"/>
				<path id="XMLID_77_" class="st2" d="M88.66,70.81v3.57c0,0.5-0.15,0.97-0.4,1.36c-0.17,0.26-0.38,0.48-0.63,0.67
					c-0.41,0.3-0.92,0.48-1.47,0.48H33.47c-1.38,0-2.51-1.12-2.51-2.51v-3.57c0-1.38,1.12-2.51,2.51-2.51h52.69
					c0.49,0,0.94,0.14,1.33,0.38c0.32,0.2,0.59,0.47,0.79,0.78C88.52,69.86,88.66,70.32,88.66,70.81z"/>
				<g id="XMLID_58_">
					<path id="XMLID_75_" class="st3" d="M38.23,73.62c0,0.52-0.13,0.88-0.4,1.09c-0.24,0.19-0.61,0.28-1.14,0.28h-2.33
						c-1.02,0-1.53-0.44-1.53-1.32h0.81c0,0.41,0.29,0.61,0.86,0.61h2.02c0.28,0,0.49-0.04,0.62-0.11c0.18-0.1,0.27-0.28,0.27-0.55
						c0-0.3-0.16-0.5-0.47-0.6c-0.19-0.07-0.47-0.1-0.85-0.1c-0.15,0-0.37,0-0.67,0.02c-0.3,0.01-0.52,0.02-0.67,0.02
						c-0.59,0-1.03-0.07-1.33-0.22c-0.41-0.21-0.62-0.58-0.62-1.1c0-0.48,0.14-0.82,0.43-1.03c0.24-0.18,0.62-0.27,1.12-0.27h2.22
						c1.1,0,1.64,0.44,1.64,1.31h-0.84c0-0.41-0.29-0.61-0.88-0.61H34.4c-0.48,0-0.73,0.2-0.73,0.61c0,0.42,0.44,0.63,1.32,0.63
						c0.14,0,0.34-0.01,0.62-0.02c0.27-0.02,0.48-0.02,0.61-0.02c0.6,0,1.06,0.08,1.37,0.25C38.02,72.7,38.23,73.08,38.23,73.62z"/>
					<path id="XMLID_73_" class="st3" d="M43.3,74.99h-0.81v-1.93h-0.2c-0.78,0-1.32-0.12-1.61-0.35c-0.33-0.27-0.5-0.78-0.5-1.54
						v-0.84h0.79v0.78c0,0.55,0.11,0.9,0.32,1.06c0.17,0.12,0.54,0.19,1.12,0.19h0.95c0.56,0,0.93-0.06,1.1-0.19
						c0.21-0.15,0.31-0.5,0.31-1.05v-0.78h0.79v0.84c0,0.77-0.17,1.29-0.49,1.55c-0.28,0.23-0.82,0.35-1.61,0.35H43.3V74.99z"/>
					<path id="XMLID_71_" class="st3" d="M52.95,73.62c0,0.52-0.13,0.88-0.4,1.09c-0.23,0.19-0.61,0.28-1.14,0.28h-2.33
						c-1.02,0-1.53-0.44-1.53-1.32h0.81c0,0.41,0.29,0.61,0.86,0.61h2.01c0.28,0,0.49-0.04,0.63-0.11c0.18-0.1,0.27-0.28,0.27-0.55
						c0-0.3-0.16-0.5-0.47-0.6c-0.19-0.07-0.47-0.1-0.84-0.1c-0.15,0-0.37,0-0.67,0.02c-0.3,0.01-0.52,0.02-0.67,0.02
						c-0.59,0-1.03-0.07-1.33-0.22c-0.41-0.21-0.62-0.58-0.62-1.1c0-0.48,0.14-0.82,0.42-1.03c0.25-0.18,0.62-0.27,1.12-0.27h2.22
						c1.09,0,1.64,0.44,1.64,1.31h-0.84c0-0.41-0.29-0.61-0.88-0.61h-2.1c-0.48,0-0.73,0.2-0.73,0.61c0,0.42,0.44,0.63,1.32,0.63
						c0.14,0,0.34-0.01,0.61-0.02c0.27-0.02,0.48-0.02,0.61-0.02c0.6,0,1.06,0.08,1.37,0.25C52.73,72.7,52.95,73.08,52.95,73.62z"/>
					<path id="XMLID_68_" class="st3" d="M61.93,74.31l-0.36,0.71l-0.81-0.39c-0.26,0.14-0.43,0.22-0.53,0.25
						c-0.23,0.07-0.54,0.11-0.91,0.11h-2.38c-0.66,0-1.13-0.1-1.42-0.31c-0.35-0.24-0.53-0.68-0.53-1.3c0-0.74,0.35-1.17,1.05-1.3
						c-0.17-0.11-0.25-0.31-0.25-0.58c0-0.46,0.19-0.78,0.58-0.97c0.28-0.13,0.67-0.19,1.2-0.19h1.05c0.55,0,0.96,0.08,1.23,0.25
						c0.34,0.21,0.51,0.58,0.51,1.1h-0.8c0-0.43-0.34-0.64-1.03-0.64h-1.04c-0.6,0-0.9,0.17-0.9,0.5c0,0.16,0.14,0.32,0.41,0.48
						l3.37,1.59c0.07-0.14,0.1-0.31,0.11-0.49h0.81c0,0.32-0.06,0.6-0.17,0.82L61.93,74.31z M59.83,74.16l-3.31-1.57
						c-0.49,0.03-0.74,0.33-0.74,0.89c0,0.33,0.13,0.56,0.38,0.68c0.17,0.08,0.45,0.12,0.82,0.12h1.73
						C59.29,74.28,59.67,74.24,59.83,74.16z"/>
					<path id="XMLID_66_" class="st3" d="M72.47,70.33l-1.85,4.66h-1.16l-1.34-3.65l-1.33,3.65H65.6l-1.84-4.66h0.85l1.54,3.96h0.09
						l1.45-3.96h0.85l1.46,3.94h0.1l1.52-3.94H72.47z"/>
					<path id="XMLID_63_" class="st3" d="M79.87,73.62c0,0.59-0.19,0.98-0.58,1.16c-0.29,0.14-0.86,0.21-1.72,0.21h-1.03
						c-0.65,0-1.13-0.05-1.42-0.17c-0.32-0.12-0.55-0.34-0.67-0.66c-0.11-0.3-0.17-0.77-0.17-1.42c0-0.7,0.05-1.2,0.15-1.5
						c0.11-0.36,0.33-0.6,0.64-0.73c0.31-0.13,0.8-0.19,1.48-0.19h1.03c0.76,0,1.32,0.1,1.68,0.3c0.34,0.19,0.53,0.48,0.58,0.87
						c0.01,0.08,0.02,0.33,0.03,0.76c0,0,0,0.02,0,0.03l0,0.64h-4.86c0,0.62,0.11,1.01,0.33,1.18c0.18,0.13,0.59,0.19,1.23,0.19
						h0.98c0.59,0,0.96-0.03,1.14-0.08c0.29-0.08,0.42-0.28,0.42-0.6H79.87z M79.12,72.25c-0.01-0.43-0.02-0.67-0.03-0.71
						c-0.04-0.23-0.2-0.38-0.48-0.44c-0.18-0.04-0.54-0.07-1.06-0.07H76.6c-0.63,0-1.04,0.06-1.23,0.18
						c-0.23,0.15-0.35,0.5-0.35,1.04H79.12z"/>
					<path id="XMLID_59_" class="st3" d="M85.56,74.99h-3.73v-4.66h3.43c0.47,0,0.82,0.07,1.06,0.22c0.29,0.19,0.44,0.5,0.44,0.94
						c0,0.25-0.02,0.45-0.05,0.58c-0.06,0.21-0.17,0.35-0.35,0.44C86.79,72.63,87,73,87,73.62c0,0.5-0.12,0.85-0.35,1.06
						C86.42,74.89,86.06,74.99,85.56,74.99z M85.26,71.03h-2.64v1.17h2.65c0.47,0,0.7-0.19,0.7-0.57
						C85.98,71.23,85.74,71.03,85.26,71.03z M85.42,72.91h-2.8v1.38h2.84c0.51,0,0.76-0.24,0.76-0.72
						C86.22,73.13,85.95,72.91,85.42,72.91z"/>
				</g>
				<path id="XMLID_57_" class="st2" d="M100.59,74.2l-2.58,2.57c-0.3,0.3-0.67,0.5-1.06,0.59c-0.72,0.17-1.51-0.03-2.07-0.59
					l-0.78-0.79l0.65-0.65l1.08-1.07c0.87-0.86,0.87-2.26,0.01-3.13l-0.99-1l-0.79-0.79l0.85-0.85c0.67-0.67,1.68-0.82,2.49-0.44
					c0.23,0.11,0.44,0.25,0.63,0.44l2.57,2.58C101.46,71.93,101.46,73.33,100.59,74.2z"/>
			</g>
		</g>
	</g>
</g>
</svg>
