<?xml version="1.0" encoding="utf-8"?>
<!-- Generator: Adobe Illustrator 23.0.2, SVG Export Plug-In . SVG Version: 6.00 Build 0)  -->
<svg version="1.1" id="Capa_1" xmlns="http://www.w3.org/2000/svg" xmlns:xlink="http://www.w3.org/1999/xlink" x="0px" y="0px"
	 viewBox="0 0 185 118" style="enable-background:new 0 0 185 118;" xml:space="preserve">
<style type="text/css">
	.st0{fill:#221F20;}
	.st1{fill:#CB037B;}
	.st2{fill:#FFFFFF;}
</style>
<g id="Layer_1">
	<g>
		<g id="XMLID_18_">
			<path id="XMLID_12_" class="st0" d="M180.06,91.09l-4.43,4.41c-1.17,1.15-2.88,1.41-4.29,0.76c-0.39-0.19-0.76-0.43-1.08-0.76
				l-2.71-2.71l1.85-1.84c1.49-1.48,1.49-3.88,0.02-5.37l-1.7-1.72l2.58-2.58c0.52-0.52,1.15-0.86,1.82-1.01
				c1.24-0.29,2.59,0.05,3.55,1.01l4.41,4.43C181.55,87.21,181.53,89.62,180.06,91.09z"/>
			<path id="XMLID_626_" class="st0" d="M167.92,90.82l-4.43,4.41c-1.15,1.15-2.87,1.41-4.26,0.77c-0.41-0.19-0.79-0.45-1.12-0.77
				l-0.62-0.62c0.5-0.82,0.77-1.82,0.77-2.88v-7.26c0-1.05-0.27-2.01-0.74-2.82l0.6-0.6c0.52-0.52,1.13-0.84,1.8-1
				c1.24-0.29,2.61,0.03,3.57,1.01l4.41,4.43C169.41,86.92,169.4,89.34,167.92,90.82z"/>
			<path id="XMLID_615_" class="st1" d="M165.46,90.58l-4.43,4.41c-0.52,0.52-1.13,0.84-1.8,1c-0.88,0.21-1.8,0.1-2.61-0.31
				c0.34-0.31,0.64-0.67,0.88-1.08c0.5-0.82,0.77-1.82,0.77-2.88v-7.26c0-1.05-0.27-2.01-0.74-2.82c-0.31-0.55-0.7-1.01-1.17-1.37
				c1.08-0.67,2.44-0.76,3.59-0.22c0.41,0.19,0.77,0.45,1.12,0.77l4.41,4.43C166.94,86.7,166.94,89.1,165.46,90.58z"/>
			<path id="XMLID_602_" class="st0" d="M56.7,84.43c0-2.82,1.97-5.1,4.41-5.1h92.75c0.45,0,0.88,0.07,1.27,0.22
				c1.2-2.33,1.8-5.15,1.8-8.41V47.3h-9.37v24.47c0,1.73-0.38,3.07-1.12,4s-1.8,1.39-3.19,1.39c-1.41,0-2.47-0.46-3.21-1.39
				s-1.12-2.25-1.12-4V47.3h-9.2v24.47c0,1.73-0.36,3.07-1.1,4c-0.74,0.93-1.8,1.39-3.19,1.39s-2.46-0.46-3.19-1.39
				c-0.74-0.93-1.12-2.25-1.12-4V47.3H121v-0.02l-5.32,0.02h-3.93v0.02h-0.57c0.34,4.6,0.17,15.19-0.84,18.44L93.61,42.93
				c-1.43-1.89-2.44-3.61-2.44-5.85c0-2.44,1.6-5.24,4.88-5.24c3.37,0,4.7,2.8,4.7,5.32v1.36h10.16v-1.27
				c0-9.2-5.79-15.86-14.7-15.86s-15.28,6.94-15.28,15.86c0,3.33,1.18,6.32,2.52,8.65c-1.67,1.34-3.12,2.8-4.36,4.36v-2.49h-8.79
				c-3.49,0-6.01,0.19-7.55,0.58c-1.55,0.38-2.87,1.05-3.93,1.97c-1.13,0.98-1.99,2.15-2.58,3.52c-0.58,1.37-0.88,2.9-0.88,4.6
				c0,1.73,0.5,3.43,1.51,5.08s2.35,2.99,4.05,4.03l7.45,4.46c0.91,0.55,1.58,1.1,2.01,1.63c0.43,0.53,0.65,1.06,0.65,1.6
				c0,0.62-0.22,1.08-0.64,1.41c-0.43,0.33-1.03,0.48-1.82,0.48H29.85v9.25H56.7V84.43z M89.49,54.49l14.44,19.57
				c-2.09,1.25-4.53,2.08-7.23,2.08c-6.64,0-12.09-5.49-12.09-12C84.62,59.98,86.97,56.65,89.49,54.49z M67.84,61.22
				c-0.88-0.52-1.51-1.03-1.94-1.55c-0.41-0.52-0.64-1.03-0.64-1.55c0-0.53,0.27-0.93,0.81-1.15c0.53-0.22,1.51-0.34,2.94-0.34h6.52
				c-0.86,2.39-1.32,4.89-1.32,7.5c0,0.29,0,0.58,0.02,0.88L67.84,61.22z"/>
			<path id="XMLID_601_" class="st1" d="M157.1,85.03v6.13c0,0.86-0.26,1.67-0.69,2.33c-0.29,0.45-0.65,0.82-1.08,1.15
				c-0.7,0.52-1.58,0.82-2.52,0.82H62.33c-2.37,0-4.31-1.92-4.31-4.31v-6.13c0-2.37,1.92-4.31,4.31-4.31h90.46
				c0.84,0,1.61,0.24,2.28,0.65c0.55,0.34,1.01,0.81,1.36,1.34C156.85,83.38,157.1,84.17,157.1,85.03z"/>
			<g id="XMLID_555_">
				<path id="XMLID_599_" class="st2" d="M70.52,89.86c0,0.89-0.22,1.51-0.69,1.87c-0.41,0.33-1.05,0.48-1.96,0.48h-4
					c-1.75,0-2.63-0.76-2.63-2.27h1.39c0,0.7,0.5,1.05,1.48,1.05h3.47c0.48,0,0.84-0.07,1.06-0.19c0.31-0.17,0.46-0.48,0.46-0.94
					c0-0.52-0.27-0.86-0.81-1.03c-0.33-0.12-0.81-0.17-1.46-0.17c-0.26,0-0.64,0-1.15,0.03c-0.52,0.02-0.89,0.03-1.15,0.03
					c-1.01,0-1.77-0.12-2.28-0.38c-0.7-0.36-1.06-1-1.06-1.89c0-0.82,0.24-1.41,0.74-1.77c0.41-0.31,1.06-0.46,1.92-0.46h3.81
					c1.89,0,2.82,0.76,2.82,2.25h-1.44c0-0.7-0.5-1.05-1.51-1.05h-3.59c-0.82,0-1.25,0.34-1.25,1.05c0,0.72,0.76,1.08,2.27,1.08
					c0.24,0,0.58-0.02,1.06-0.03c0.46-0.03,0.82-0.03,1.05-0.03c1.03,0,1.82,0.14,2.35,0.43C70.16,88.26,70.52,88.93,70.52,89.86z"
					/>
				<path id="XMLID_597_" class="st2" d="M79.21,92.21h-1.39V88.9h-0.34c-1.34,0-2.27-0.21-2.76-0.6c-0.57-0.46-0.86-1.34-0.86-2.64
					v-1.44h1.36v1.34c0,0.94,0.19,1.55,0.55,1.82c0.29,0.21,0.93,0.33,1.92,0.33h1.63c0.96,0,1.6-0.1,1.89-0.33
					c0.36-0.26,0.53-0.86,0.53-1.8v-1.34h1.36v1.44c0,1.32-0.29,2.21-0.84,2.66c-0.48,0.39-1.41,0.6-2.76,0.6h-0.29v3.28H79.21z"/>
				<path id="XMLID_595_" class="st2" d="M95.78,89.86c0,0.89-0.22,1.51-0.69,1.87c-0.39,0.33-1.05,0.48-1.96,0.48h-4
					c-1.75,0-2.63-0.76-2.63-2.27h1.39c0,0.7,0.5,1.05,1.48,1.05h3.45c0.48,0,0.84-0.07,1.08-0.19c0.31-0.17,0.46-0.48,0.46-0.94
					c0-0.52-0.27-0.86-0.81-1.03c-0.33-0.12-0.81-0.17-1.44-0.17c-0.26,0-0.64,0-1.15,0.03c-0.52,0.02-0.89,0.03-1.15,0.03
					c-1.01,0-1.77-0.12-2.28-0.38c-0.7-0.36-1.06-1-1.06-1.89c0-0.82,0.24-1.41,0.72-1.77c0.43-0.31,1.06-0.46,1.92-0.46h3.81
					c1.87,0,2.82,0.76,2.82,2.25H94.3c0-0.7-0.5-1.05-1.51-1.05h-3.61c-0.82,0-1.25,0.34-1.25,1.05c0,0.72,0.76,1.08,2.27,1.08
					c0.24,0,0.58-0.02,1.05-0.03c0.46-0.03,0.82-0.03,1.05-0.03c1.03,0,1.82,0.14,2.35,0.43C95.42,88.26,95.78,88.93,95.78,89.86z"
					/>
				<path id="XMLID_588_" class="st2" d="M111.19,91.04l-0.62,1.22l-1.39-0.67c-0.45,0.24-0.74,0.38-0.91,0.43
					c-0.39,0.12-0.93,0.19-1.56,0.19h-4.09c-1.13,0-1.94-0.17-2.44-0.53c-0.6-0.41-0.91-1.17-0.91-2.23c0-1.27,0.6-2.01,1.8-2.23
					c-0.29-0.19-0.43-0.53-0.43-1c0-0.79,0.33-1.34,1-1.67c0.48-0.22,1.15-0.33,2.06-0.33h1.8c0.94,0,1.65,0.14,2.11,0.43
					c0.58,0.36,0.88,1,0.88,1.89h-1.37c0-0.74-0.58-1.1-1.77-1.1h-1.79c-1.03,0-1.55,0.29-1.55,0.86c0,0.27,0.24,0.55,0.7,0.82
					l5.79,2.73c0.12-0.24,0.17-0.53,0.19-0.84h1.39c0,0.55-0.1,1.03-0.29,1.41L111.19,91.04z M107.61,90.77l-5.68-2.7
					c-0.84,0.05-1.27,0.57-1.27,1.53c0,0.57,0.22,0.96,0.65,1.17c0.29,0.14,0.77,0.21,1.41,0.21h2.97
					C106.68,90.99,107.31,90.92,107.61,90.77z"/>
				<path id="XMLID_586_" class="st2" d="M129.29,84.21l-3.18,8h-1.99l-2.3-6.27l-2.28,6.27h-2.04l-3.16-8h1.46l2.64,6.8h0.15
					l2.49-6.8h1.46l2.51,6.76h0.17l2.61-6.76H129.29z"/>
				<path id="XMLID_560_" class="st2" d="M142.01,89.84c0,1.01-0.33,1.68-1,1.99c-0.5,0.24-1.48,0.36-2.95,0.36h-1.77
					c-1.12,0-1.94-0.09-2.44-0.29c-0.55-0.21-0.94-0.58-1.15-1.13c-0.19-0.52-0.29-1.32-0.29-2.44c0-1.2,0.09-2.06,0.26-2.58
					c0.19-0.62,0.57-1.03,1.1-1.25c0.53-0.22,1.37-0.33,2.54-0.33h1.77c1.3,0,2.27,0.17,2.88,0.52c0.58,0.33,0.91,0.82,1,1.49
					c0.02,0.14,0.03,0.57,0.05,1.3c0,0,0,0.03,0,0.05v1.1h-8.34c0,1.06,0.19,1.73,0.57,2.03c0.31,0.22,1.01,0.33,2.11,0.33h1.68
					c1.01,0,1.65-0.05,1.96-0.14c0.5-0.14,0.72-0.48,0.72-1.03h1.3V89.84z M140.71,87.49c-0.02-0.74-0.03-1.15-0.05-1.22
					c-0.07-0.39-0.34-0.65-0.82-0.76c-0.31-0.07-0.93-0.12-1.82-0.12h-1.63c-1.08,0-1.79,0.1-2.11,0.31
					c-0.39,0.26-0.6,0.86-0.6,1.79H140.71z"/>
				<path id="XMLID_556_" class="st2" d="M151.76,92.21h-6.4v-8h5.89c0.81,0,1.41,0.12,1.82,0.38c0.5,0.33,0.76,0.86,0.76,1.61
					c0,0.43-0.03,0.77-0.09,1c-0.1,0.36-0.29,0.6-0.6,0.76c0.72,0.21,1.1,0.84,1.1,1.91c0,0.86-0.21,1.46-0.6,1.82
					C153.26,92.04,152.62,92.21,151.76,92.21z M151.27,85.41h-4.55v2.01h4.55c0.81,0,1.2-0.33,1.2-0.98
					C152.48,85.75,152.07,85.41,151.27,85.41z M151.54,88.62h-4.82v2.37h4.88c0.88,0,1.3-0.41,1.3-1.24
					C152.9,89,152.45,88.62,151.54,88.62z"/>
			</g>
			<path id="XMLID_13_" class="st1" d="M177.59,90.84l-4.43,4.41c-0.52,0.52-1.15,0.86-1.82,1.01c-1.24,0.29-2.59-0.05-3.55-1.01
				l-1.34-1.36l1.12-1.12l1.85-1.84c1.49-1.48,1.49-3.88,0.02-5.37l-1.7-1.72l-1.36-1.36l1.46-1.46c1.15-1.15,2.88-1.41,4.28-0.76
				c0.39,0.19,0.76,0.43,1.08,0.76l4.41,4.43C179.08,86.96,179.08,89.36,177.59,90.84z"/>
		</g>
	</g>
</g>
</svg>
